<?xml version="1.0" encoding="UTF-8"?>
<svg width="50px" height="50px" viewBox="0 0 50 50" version="1.1" xmlns="http://www.w3.org/2000/svg" xmlns:xlink="http://www.w3.org/1999/xlink">
    <!-- Generator: Sketch 46.2 (44496) - http://www.bohemiancoding.com/sketch -->
    <title>icon / file / other</title>
    <desc>Created with Sketch.</desc>
    <defs></defs>
    <g id="Symbols" stroke="none" stroke-width="1" fill="none" fill-rule="evenodd">
        <g id="icon-/-file-/-other">
            <rect id="bg" fill="#E2E4E9" x="0" y="0" width="50" height="50" rx="4"></rect>
            <path d="M34.4155625,14.7959024 C35.0228926,15.3894634 35.4433519,16.0439025 35.6925129,16.744 C35.941674,17.4440976 36.0351094,18.1594146 35.9883917,18.8747317 C35.941674,19.6052683 35.7392306,20.3053658 35.3810616,21.0054634 C35.0384652,21.705561 34.5557156,22.3447805 33.9483855,22.9383415 L26.9251583,29.7871219 C26.9095858,29.8023415 26.8161504,29.8936585 26.6448522,30.0762927 C26.4735539,30.2437073 26.2866832,30.4263415 26.0686672,30.6241951 C25.8195062,30.8524878 25.5392,31.1112195 25.2433212,31.4156098 C24.6515637,32.0091707 24.0753788,32.4048781 23.4991938,32.6027317 C22.9230089,32.8005854 22.3935417,32.8919025 21.8952195,32.8614634 C21.3968974,32.8310244 20.9297205,32.6940488 20.5092612,32.4657561 C20.0888019,32.2374634 19.7462054,31.9939512 19.4814718,31.7047805 C19.154448,31.3547317 18.8585692,30.9742439 18.6405533,30.5633171 C18.4069648,30.1523903 18.2823843,29.7110244 18.2512391,29.224 C18.2356665,28.7521951 18.329102,28.2347317 18.578263,27.7020488 C18.8118515,27.1541463 19.2323108,26.5910244 19.8396409,25.9974634 L27.6882141,18.2811707 C27.8439397,18.1289756 28.0619557,18.0985366 28.3578344,18.1898537 C28.6537131,18.2811707 28.8717291,18.3877073 29.0274547,18.5399024 C29.1831804,18.6920976 29.2921883,18.9051707 29.3700512,19.1943415 C29.447914,19.4835122 29.4011963,19.6965854 29.2610432,19.8487805 L21.41247,27.5346341 C21.1165912,27.8238049 20.9297205,28.2042927 20.8518576,28.6760976 C20.7895674,29.1479024 20.9297205,29.5588293 21.303462,29.9240975 C21.5993408,30.2284878 21.988655,30.3806829 22.4558319,30.3806829 C22.9230089,30.3959024 23.3590408,30.2132683 23.7327823,29.8327805 L32.391129,21.3555122 C33.2943378,20.4727805 33.7770873,19.5900488 33.823805,18.7073171 C33.8705227,17.8245854 33.5434988,17.0331707 32.8427334,16.3178537 C32.4534192,15.9373658 32.0485325,15.6329756 31.5969281,15.4199024 C31.1453237,15.2068293 30.6781467,15.0850732 30.2109697,15.0850732 C29.7282202,15.0698536 29.2454707,15.1611707 28.7627211,15.3438049 C28.2799716,15.526439 27.8127946,15.8460488 27.3456176,16.2874146 L17.7840622,25.6778537 C17.3324577,26.1192195 16.9742887,26.6519024 16.6939825,27.2759024 C16.4292489,27.8999024 16.2579507,28.5543415 16.2268056,29.254439 C16.1800879,29.9393171 16.2735232,30.6394146 16.5226843,31.3395122 C16.7562728,32.0396098 17.1767321,32.6788293 17.752917,33.2571707 C18.4069648,33.8963902 19.0765851,34.3529756 19.7773506,34.5964878 C20.4781161,34.84 21.1788815,34.9465366 21.8640744,34.9008781 C22.5492673,34.8552195 23.2033151,34.6878049 23.7950726,34.3986341 C24.4024026,34.1094634 24.9318699,33.7441951 25.3834743,33.2876098 L33.8705227,24.9625366 C34.0262484,24.8103415 34.2442643,24.7799024 34.5401431,24.8712195 C34.8360218,24.9625366 35.0540377,25.0690732 35.2097634,25.1908293 C35.3654891,25.3430244 35.474497,25.5560976 35.5523598,25.8452683 C35.6302227,26.134439 35.583505,26.3475122 35.4433519,26.4997073 L26.9407309,34.8552195 C26.3334008,35.4487805 25.6014902,35.9358049 24.7294265,36.3162927 C23.8573628,36.6967805 22.9230089,36.9250732 21.9419372,36.9859512 C20.9608656,37.0468293 19.9642214,36.9098536 18.9675771,36.5750244 C17.9709329,36.2401951 17.0521515,35.6466341 16.1956604,34.809561 C15.3235967,33.9420488 14.7318392,33.0136585 14.4048154,32.0091707 C14.0777915,31.0046829 13.9532109,30.0154146 14.0155012,29.0565854 C14.0933641,28.0977561 14.3269525,27.1845854 14.7318392,26.3170732 C15.136726,25.449561 15.6506206,24.7342439 16.2423781,24.1406829 L25.8350787,14.7350244 C26.4424088,14.1414634 27.1120291,13.7153171 27.8595123,13.4261463 C28.6069954,13.1369756 29.3700512,13 30.164252,13 C30.9584529,13 31.7215086,13.1521951 32.4534192,13.4413659 C33.1386121,13.7609756 33.8082325,14.2023415 34.4155625,14.7959024 L34.4155625,14.7959024 Z" id="icon_uploadFile" fill="#FFFFFF" fill-rule="nonzero"></path>
        </g>
    </g>
</svg>