<?xml version="1.0" encoding="UTF-8"?>
<svg width="50px" height="50px" viewBox="0 0 50 50" version="1.1" xmlns="http://www.w3.org/2000/svg" xmlns:xlink="http://www.w3.org/1999/xlink">
    <!-- Generator: Sketch 46.2 (44496) - http://www.bohemiancoding.com/sketch -->
    <title>icon / file / rar</title>
    <desc>Created with Sketch.</desc>
    <defs></defs>
    <g id="Symbols" stroke="none" stroke-width="1" fill="none" fill-rule="evenodd">
        <g id="icon-/-file-/-rar">
            <rect id="bg" fill="#FFD56E" x="0" y="0" width="50" height="50" rx="4"></rect>
            <path d="M22.5714286,4 L24.9285714,4 C25.2441627,4 25.5,4.25583729 25.5,4.57142857 L25.5,6.85714286 C25.5,7.17273414 25.2441627,7.42857143 24.9285714,7.42857143 L22.5714286,7.42857143 C22.2558373,7.42857143 22,7.17273414 22,6.85714286 L22,4.57142857 L22,4.57142857 C22,4.25583729 22.2558373,4 22.5714286,4 L22.5714286,4 Z M26.0714286,7.42857143 L28.4285714,7.42857143 C28.7441627,7.42857143 29,7.68440871 29,8 L29,10.2857143 C29,10.6013056 28.7441627,10.8571429 28.4285714,10.8571429 L26.0714286,10.8571429 C25.7558373,10.8571429 25.5,10.6013056 25.5,10.2857143 L25.5,8 C25.5,7.68440871 25.7558373,7.42857143 26.0714286,7.42857143 Z M22.5714286,10.8571429 L24.9285714,10.8571429 C25.2441627,10.8571429 25.5,11.1129801 25.5,11.4285714 L25.5,13.7142857 C25.5,14.029877 25.2441627,14.2857143 24.9285714,14.2857143 L22.5714286,14.2857143 C22.2558373,14.2857143 22,14.029877 22,13.7142857 L22,11.4285714 C22,11.1129801 22.2558373,10.8571429 22.5714286,10.8571429 L22.5714286,10.8571429 Z M26.0714286,14.2857143 L28.4285714,14.2857143 C28.7441627,14.2857143 29,14.5415516 29,14.8571429 L29,17.1428571 C29,17.4584484 28.7441627,17.7142857 28.4285714,17.7142857 L26.0714286,17.7142857 C25.7558373,17.7142857 25.5,17.4584484 25.5,17.1428571 L25.5,14.8571429 C25.5,14.5415516 25.7558373,14.2857143 26.0714286,14.2857143 Z M22.5714286,17.7142857 L24.9285714,17.7142857 C25.2441627,17.7142857 25.5,17.970123 25.5,18.2857143 L25.5,20.5714286 C25.5,20.8870199 25.2441627,21.1428571 24.9285714,21.1428571 L22.5714286,21.1428571 C22.2558373,21.1428571 22,20.8870199 22,20.5714286 L22,18.2857143 C22,17.970123 22.2558373,17.7142857 22.5714286,17.7142857 L22.5714286,17.7142857 Z M26.0714286,21.1428571 L28.4285714,21.1428571 C28.7441627,21.1428571 29,21.3986944 29,21.7142857 L29,24 C29,24.3155913 28.7441627,24.5714286 28.4285714,24.5714286 L26.0714286,24.5714286 C25.7558373,24.5714286 25.5,24.3155913 25.5,24 L25.5,21.7142857 C25.5,21.3986944 25.7558373,21.1428571 26.0714286,21.1428571 Z M22.5714286,26.8571429 L28.4285714,26.8571429 C28.7441627,26.8571429 29,27.1129801 29,27.4285714 L29,35.4285714 L29,35.4285714 C29,35.7441627 28.7441627,36 28.4285714,36 L22.5714286,36 C22.2558373,36 22,35.7441627 22,35.4285714 L22,27.4285714 L22,27.4285714 C22,27.1129801 22.2558373,26.8571429 22.5714286,26.8571429 L22.5714286,26.8571429 Z M23.7380952,31.4285714 L23.7380952,31.4285714 C23.422504,31.4285714 23.1666667,31.6844087 23.1666667,32 L23.1666667,34.2857143 C23.1666667,34.6013056 23.422504,34.8571429 23.7380952,34.8571429 L23.7380952,34.8571429 L27.2619048,34.8571429 C27.577496,34.8571429 27.8333333,34.6013056 27.8333333,34.2857143 L27.8333333,34.2857143 L27.8333333,32 C27.8333333,31.6844087 27.577496,31.4285714 27.2619048,31.4285714 L23.7380952,31.4285714 Z" id="Rectangle-66" fill="#FFFFFF"></path>
        </g>
    </g>
</svg>