<?xml version="1.0" encoding="UTF-8" standalone="no"?>
<svg width="22px" height="22px" viewBox="0 0 22 22" version="1.1" xmlns="http://www.w3.org/2000/svg" xmlns:xlink="http://www.w3.org/1999/xlink">
    <!-- Generator: Sketch 46.2 (44496) - http://www.bohemiancoding.com/sketch -->
    <title>icon_file</title>
    <desc>Created with Sketch.</desc>
    <defs></defs>
    <g id="Symbols" stroke="none" stroke-width="1" fill="none" fill-rule="evenodd">
        <g id="btn-/-btn_upload_files" transform="translate(-14.000000, -14.000000)" fill-rule="nonzero" fill="#DDDDDD">
            <g id="icon" transform="translate(14.000000, 14.000000)">
                <path d="M19.5596023,1.64624391 C20.1117205,2.19034147 20.4939563,2.79024392 20.7204663,3.432 C20.9469764,4.07375609 21.0319176,4.72946342 20.989447,5.38517072 C20.9469764,6.05482925 20.7629369,6.69658535 20.4373287,7.33834147 C20.1258774,7.98009757 19.6870142,8.56604878 19.1348959,9.11014635 L12.7501439,15.3881951 C12.735987,15.4021463 12.6510458,15.4858537 12.4953201,15.6532683 C12.3395945,15.8067317 12.169712,15.9741463 11.9715156,16.1555122 C11.7450056,16.3647805 11.4901818,16.6019512 11.2212011,16.8809756 C10.6832397,17.4250732 10.1594352,17.7878049 9.63563076,17.9691707 C9.11182626,18.1505366 8.63049242,18.2342439 8.17747232,18.2063415 C7.72445221,18.178439 7.29974588,18.052878 6.91751016,17.8436098 C6.53527444,17.6343415 6.22382314,17.411122 5.98315621,17.1460488 C5.68586177,16.8251707 5.41688108,16.4763902 5.21868479,16.0997073 C5.00633161,15.7230244 4.8930766,15.318439 4.86476283,14.872 C4.85060595,14.4395122 4.93554723,13.9651707 5.16205729,13.476878 C5.37441047,12.9746341 5.75664617,12.458439 6.30876442,11.9143415 L13.443831,4.84107318 C13.5853998,4.70156099 13.783596,4.67365854 14.0525767,4.75736585 C14.3215574,4.84107316 14.5197537,4.93873169 14.6613225,5.07824391 C14.8028913,5.2177561 14.9019894,5.41307317 14.9727738,5.67814635 C15.0435582,5.94321953 15.0010875,6.1385366 14.8736757,6.27804877 L7.7386091,13.3234146 C7.46962841,13.5884878 7.29974588,13.9372683 7.22896148,14.3697561 C7.17233397,14.8022439 7.29974588,15.1789268 7.63951095,15.5137561 C7.90849164,15.7927805 8.2624136,15.9322927 8.68711993,15.9322927 C9.11182626,15.9462439 9.50821887,15.7788293 9.84798394,15.4300488 L17.7192082,7.65921951 C18.5403071,6.85004876 18.9791703,6.04087804 19.0216409,5.23170732 C19.0641116,4.4225366 18.7668171,3.69707317 18.1297576,3.04136585 C17.7758357,2.69258536 17.4077568,2.41356098 16.9972074,2.2182439 C16.5866579,2.02292683 16.1619516,1.91131707 15.7372452,1.91131707 C15.298382,1.89736584 14.8595188,1.98107318 14.4206556,2.1484878 C13.9817923,2.31590244 13.557086,2.60887805 13.1323797,3.01346342 L4.4400565,11.6213659 C4.02950703,12.0259512 3.70389885,12.5142439 3.44907504,13.0862439 C3.20840811,13.6582439 3.05268245,14.2581463 3.02436868,14.8999024 C2.98189805,15.5277073 3.06683932,16.1694634 3.29334938,16.8112195 C3.50570255,17.4529756 3.88793825,18.0389268 4.41174275,18.5690732 C5.00633163,19.1550244 5.6150774,19.573561 6.2521369,19.7967805 C6.88919641,20.02 7.52625592,20.1176585 8.14915857,20.0758049 C8.77206122,20.0339512 9.36665009,19.8804878 9.90461143,19.6154146 C10.4567297,19.3503414 10.9380635,19.0155122 11.348613,18.5969756 L19.0641116,10.9656585 C19.2056803,10.8261463 19.4038766,10.7982439 19.6728573,10.8819512 C19.941838,10.9656586 20.1400343,11.0633171 20.2816031,11.1749268 C20.4231719,11.314439 20.52227,11.5097561 20.5930544,11.7748293 C20.6638388,12.0399025 20.6213681,12.2352195 20.4939563,12.3747317 L12.7643008,20.0339512 C12.2121826,20.5780488 11.5468093,21.0244878 10.7540241,21.3732683 C9.96123895,21.7220488 9.11182626,21.9313171 8.21994295,21.987122 C7.32805963,22.0429268 6.42201943,21.9173658 5.51597923,21.610439 C4.60993903,21.3035122 3.77468322,20.7594146 2.99605494,19.9920975 C2.20326977,19.196878 1.6653084,18.3458536 1.36801397,17.4250732 C1.07071953,16.5042927 0.957464496,15.5974634 1.01409201,14.7185366 C1.08487641,13.8396098 1.29722957,13.0025366 1.6653084,12.2073171 C2.03338724,11.4120976 2.50056421,10.7563903 3.03852557,10.2122927 L11.7591625,1.59043903 C12.3112807,1.04634147 12.9200265,0.655707324 13.5995566,0.390634145 C14.2790868,0.125560966 14.9727738,0 15.6947746,0 C16.4167754,0 17.1104624,0.139512192 17.7758357,0.404585371 C18.3987383,0.697560979 19.0074841,1.10214635 19.5596023,1.64624391 L19.5596023,1.64624391 Z" id="icon_file"></path>
            </g>
        </g>
    </g>
</svg>