<?xml version="1.0" encoding="UTF-8" standalone="no"?>
<svg width="20px" height="20px" viewBox="0 0 20 20" version="1.1" xmlns="http://www.w3.org/2000/svg" xmlns:xlink="http://www.w3.org/1999/xlink">
    <!-- Generator: Sketch 46.2 (44496) - http://www.bohemiancoding.com/sketch -->
    <title>btn_delete</title>
    <desc>Created with Sketch.</desc>
    <defs>
        <path d="M10.0011125,1 C5.03813312,1 1,5.03171519 1,9.98687025 C1,14.9419968 5.03813312,18.9737405 10.0011125,18.9737405 C14.9640063,18.9737405 19.002225,14.9419968 19.002225,9.98687025 C19.002225,5.03171519 14.9640063,1 10.0011125,1 L10.0011125,1 Z M14.342336,13.5565665 C14.5255309,13.7394715 14.5255309,14.0361867 14.342336,14.2191772 C14.1590269,14.4021962 13.8618415,14.4021962 13.6785325,14.2191772 L10.0011125,10.547462 L6.32357845,14.2191772 C6.14026941,14.4021962 5.8431981,14.4021962 5.65988906,14.2191772 C5.47660856,14.0361867 5.47660856,13.7394715 5.65988906,13.5565665 L9.33742314,9.88485127 L5.65988906,6.21313608 C5.47660856,6.03023101 5.47660856,5.73351582 5.65988906,5.55049684 C5.8431981,5.36747785 6.14038352,5.36747785 6.32357845,5.55049684 L10.0011125,9.22221203 L13.6785325,5.55049684 C13.8618415,5.36747785 14.1590269,5.36747785 14.342336,5.55049684 C14.5255309,5.73351582 14.5255309,6.03023101 14.342336,6.21313608 L10.6648019,9.88485127 L14.342336,13.5565665 L14.342336,13.5565665 Z" id="path-1"></path>
    </defs>
    <g id="Symbols" stroke="none" stroke-width="1" fill="none" fill-rule="evenodd">
        <g id="btn-/-btn_delete">
            <g id="btn_delete">
                <use fill="#555555" fill-rule="evenodd" xlink:href="#path-1"></use>
                <path stroke="#FFFFFF" stroke-width="1" d="M10.0011125,0.5 C15.24001,0.5 19.502225,4.75543376 19.502225,9.98687025 C19.502225,15.2182879 15.2400004,19.4737405 10.0011125,19.4737405 C4.76216783,19.4737405 0.5,15.2183166 0.5,9.98687025 C0.5,4.755405 4.76215823,0.5 10.0011125,0.5 Z M10.0451143,9.88483703 L14.0318113,5.90432457 C14.019917,5.91620011 14.0009515,5.91620011 13.9890626,5.90433005 C13.9766404,5.89191976 13.9766404,5.87170546 13.9890626,5.85930286 L9.95713459,9.88485127 L13.9890626,13.9103997 C13.9766358,13.8979925 13.9766358,13.877757 13.98898,13.8654265 C14.0009515,13.8534739 14.019917,13.8534739 14.0318058,13.865344 L10.0451143,9.88483703 Z M10.0010983,9.84092868 L5.9703051,13.865344 C5.98219397,13.8534739 6.00127354,13.8534739 6.01316241,13.865344 C6.02553121,13.8776932 6.02553121,13.8980562 6.01307978,13.9104822 L9.69069649,10.2386845 L10.0450904,9.88485127 L6.01316241,5.85930286 C6.02552663,5.87164173 6.02552663,5.89198348 6.01318995,5.90430256 C6.00125517,5.91621844 5.98220489,5.91621844 5.97019496,5.90422004 L9.64783917,9.57604524 L10.0011125,9.92875961 L10.0451143,9.88483703 L10.001118,9.84090897 Z"></path>
            </g>
        </g>
    </g>
</svg>