<?xml version="1.0" encoding="UTF-8" standalone="no"?>
<svg width="22px" height="22px" viewBox="0 0 22 22" version="1.1" xmlns="http://www.w3.org/2000/svg" xmlns:xlink="http://www.w3.org/1999/xlink">
    <!-- Generator: Sketch 46.2 (44496) - http://www.bohemiancoding.com/sketch -->
    <title>icon_camera</title>
    <desc>Created with Sketch.</desc>
    <defs></defs>
    <g id="Symbols" stroke="none" stroke-width="1" fill="none" fill-rule="evenodd">
        <g id="btn-/-btn_upload" transform="translate(-14.000000, -14.000000)" fill="#DDDDDD">
            <g id="icon" transform="translate(14.000000, 14.000000)">
                <path d="M20.0869894,20 L19.1304841,20 L19.1304841,20 L2.86959154,20 L2.86956633,20 L1.91308625,20 C0.856524087,20 0,19.1493456 0,18.1 L0,5.27500002 C0,4.22562931 0.856524087,3.37500002 1.91308625,3.37500002 L2.86956633,3.37500002 L2.86959154,3.37500002 L2.86959154,3.37500002 L5.97834092,3.37500002 L7.17392838,1.47502513 C7.17392838,1.21263221 7.86635619,1 8.13048413,1 L13.8696168,1 C14.1336942,1 14.826122,1.21263221 14.826122,1.47502513 L16.0218104,3.37500002 L19.1304841,3.37500002 L20.0869894,3.37500002 C21.1435516,3.37500002 22,4.22562931 22,5.27500002 L22,18.1 C22,19.1493456 21.1435516,20 20.0869894,20 L20.0869894,20 Z M11.0000505,5.27500002 C7.5662865,5.27500002 4.78265258,8.03964571 4.78265258,11.4500251 C4.78265258,14.8604297 7.5662865,17.625 11.0000505,17.625 C14.4337135,17.625 17.2172718,14.860505 17.2173979,11.4503265 L17.2173979,11.4497739 C17.2172718,8.03949499 14.4337135,5.27500002 11.0000505,5.27500002 L11.0000505,5.27500002 Z M11.0000505,15.7250251 C8.62282343,15.7250251 6.69571359,13.8111343 6.69571359,11.4500502 C6.69571359,9.0890415 8.62282343,7.17502513 11.0000505,7.17502513 C13.3772775,7.17502513 15.3043621,9.08904153 15.3043621,11.4500502 C15.3043621,13.8111343 13.3772775,15.7250251 11.0000505,15.7250251 L11.0000505,15.7250251 Z" id="icon_camera"></path>
            </g>
        </g>
    </g>
</svg>