<?xml version="1.0" encoding="UTF-8"?>
<svg width="50px" height="50px" viewBox="0 0 50 50" version="1.1" xmlns="http://www.w3.org/2000/svg" xmlns:xlink="http://www.w3.org/1999/xlink">
    <!-- Generator: Sketch 46.2 (44496) - http://www.bohemiancoding.com/sketch -->
    <title>icon / file / pdf</title>
    <desc>Created with Sketch.</desc>
    <defs></defs>
    <g id="Symbols" stroke="none" stroke-width="1" fill="none" fill-rule="evenodd">
        <g id="icon-/-file-/-pdf">
            <rect id="bg" fill="#FF5F3B" x="0" y="0" width="50" height="50" rx="4"></rect>
            <path d="M38.5454983,21.7521073 C37.9851114,22.3153257 36.744911,22.6143678 34.8550817,22.6398467 C33.5768222,22.6545977 32.0373988,22.539272 30.4192325,22.3072797 C29.6947979,22.7350575 28.9467405,23.1990421 28.3614184,23.7595785 C26.7839359,25.2641762 25.4676174,27.3534483 24.6460666,29.6519157 C24.6998742,29.8664751 24.7444952,30.0555556 24.7878038,30.247318 C24.7878038,30.247318 25.676286,35.4047893 25.4413697,37.1480843 C25.4085602,37.3867816 25.3888745,37.4565134 25.3258802,37.6429119 L25.2484497,37.8454023 C25.0069715,38.4153257 24.5332018,39.0187739 23.7903939,38.985249 L23.3428718,39 C22.5147591,39 21.8388827,38.5668582 21.6617112,37.9204981 C21.1223224,35.8902299 21.6787722,32.8542146 22.6866811,28.9210728 L22.428142,28.2800766 C21.7063322,26.4831418 20.8034138,24.6741379 20.0054859,23.0770115 L19.9018077,22.8691571 C19.063196,21.1915709 18.3007024,19.767433 17.6117021,18.5605364 L16.899079,18.1756705 C16.8465838,18.1475096 15.626069,17.4877395 15.3399699,17.310728 C12.9094395,15.8275862 11.2991475,14.144636 11.032734,12.8090038 C10.9474292,12.382567 11.0104236,11.8367816 11.4435094,11.5846743 L12.1325097,11.2306513 C12.4317326,11.0777778 12.7467042,11 13.06955,11 C14.8005811,11 16.8098371,13.2032567 19.5776495,18.1394636 C22.7732983,19.2028736 26.412532,20.08659 29.6016188,20.5733716 C32.0321492,19.1747126 35.0204418,18.2038314 36.9076462,18.2038314 C37.2423035,18.2038314 37.5310274,18.2360153 37.7659437,18.3003831 C38.128161,18.3982759 38.4326335,18.6088123 38.6189916,18.8957854 C38.985146,19.4590038 39.0586394,20.2340996 38.9602108,21.0279693 C38.930026,21.2639847 38.7462926,21.5549808 38.5468106,21.7534483 L38.5454983,21.7521073 Z M12.6928965,12.3409962 C13.0078681,13.2233716 14.2572552,14.9666667 16.1050883,16.5128352 C16.2205778,16.609387 16.506677,16.8829502 16.7691533,17.1377395 C14.8373278,13.9890805 13.5433197,12.735249 12.6928965,12.3409962 L12.6928965,12.3409962 Z M23.6342205,38.0867816 C24.1906702,38.0867816 24.5069541,36.6532567 24.5332018,35.3109195 C24.5594494,33.9685824 24.2523522,33.0245211 23.8704492,32.3272031 C23.5541652,33.3597701 23.401929,34.9877395 23.401929,36.0524904 C23.401929,36.0524904 23.3783061,38.0867816 23.6342205,38.0867816 L23.6342205,38.0867816 Z M20.3703279,19.739272 C20.7574804,20.448659 21.1616939,21.1955939 21.5737817,21.9881226 C22.5777535,23.9285441 23.2129461,25.4478927 23.6854034,26.6963602 C24.6250685,24.9490421 25.7957127,23.4645594 27.1710884,22.2750958 C27.3430104,22.1262452 27.524119,21.9773946 27.7157267,21.8285441 C24.9177295,21.2626437 22.5003229,20.5747126 20.3716403,19.739272 L20.3703279,19.739272 Z M38.0074219,19.9001916 C37.8368123,19.7915709 37.3486064,19.7285441 37.0349472,19.7285441 C36.0217888,19.7285441 34.7684645,20.2019157 33.0111858,20.9716475 C33.6870622,21.0226054 34.3051939,21.0480843 34.8603312,21.0480843 C35.8761144,21.0480843 36.1779622,21.0521073 37.1714349,20.793295 C38.1649077,20.5344828 38.1780315,20.0088123 38.0074219,19.8988506 L38.0074219,19.9001916 Z" id="icon" fill="#FFFFFF" transform="translate(25.000000, 25.000000) scale(1, -1) translate(-25.000000, -25.000000) "></path>
        </g>
    </g>
</svg>