<?xml version="1.0" encoding="UTF-8"?>
<svg width="50px" height="50px" viewBox="0 0 50 50" version="1.1" xmlns="http://www.w3.org/2000/svg" xmlns:xlink="http://www.w3.org/1999/xlink">
    <!-- Generator: Sketch 46.2 (44496) - http://www.bohemiancoding.com/sketch -->
    <title>icon / file / ppt</title>
    <desc>Created with Sketch.</desc>
    <defs></defs>
    <g id="Symbols" stroke="none" stroke-width="1" fill="none" fill-rule="evenodd">
        <g id="icon-/-file-/-ppt">
            <rect id="bg" fill="#FF8E46" x="0" y="0" width="50" height="50" rx="4"></rect>
            <path d="M17,13 L24.776971,13 C26.0584435,13 27.2605407,13.152188 28.3832988,13.4565686 C29.5060568,13.7609491 30.4818423,14.2060272 31.3106846,14.7918162 C32.139527,15.3776052 32.7949492,16.0954731 33.276971,16.9454415 C33.7589927,17.7954098 34,18.7659673 34,19.8571429 C34,20.9483184 33.7678101,21.8987756 33.3034232,22.7085427 C32.8390364,23.5183099 32.2277009,24.1902342 31.4693983,24.724336 C30.7110958,25.2584377 29.8469966,25.6547008 28.8770747,25.9131371 C27.9071528,26.1715734 26.9225499,26.3007897 25.9232365,26.3007897 C25.4999979,26.3007897 25.0532527,26.2893038 24.5829876,26.2663317 C24.1127224,26.2433595 23.660099,26.2117734 23.2251037,26.1715721 C22.7901085,26.1313709 22.38745,26.0882989 22.0171162,26.0423546 C21.6467824,25.9964104 21.349932,25.9447239 21.126556,25.8872936 L21.126556,37 L17,37 L17,13 Z M21.126556,24.5434314 C21.5850645,24.6697781 22.0817746,24.7903799 22.6167012,24.9052405 C23.1516278,25.0201011 23.6953638,25.0775305 24.2479253,25.0775305 C25.1414291,25.0775305 25.9202941,24.9483143 26.5845436,24.689878 C27.2487931,24.4314416 27.8013463,24.0753792 28.2422199,23.6216798 C28.6830935,23.1679805 29.0122742,22.6396297 29.2297718,22.0366116 C29.4472694,21.4335935 29.5560166,20.7875124 29.5560166,20.0983489 C29.5560166,19.2943248 29.4120001,18.5620995 29.1239627,17.9016511 C28.8359253,17.2412027 28.4450232,16.6812658 27.9512448,16.2218234 C27.4574664,15.762381 26.875522,15.4063186 26.2053942,15.1536253 C25.5352664,14.900932 24.8181228,14.7745872 24.0539419,14.7745872 L21.126556,14.7745872 L21.126556,24.5434314 Z" id="P" fill="#FFFFFF"></path>
        </g>
    </g>
</svg>